<svg width="54" height="54" viewBox="0 0 54 54" fill="none" xmlns="http://www.w3.org/2000/svg">
<path d="M18.6667 37.3333H24V16H18.6667V37.3333ZM29.3333 37.3333H34.6667V16H29.3333V37.3333ZM26.6667 53.3333C22.9778 53.3333 19.5111 52.6329 16.2667 51.232C13.0222 49.8311 10.2 47.9316 7.8 45.5333C5.4 43.1351 3.50045 40.3129 2.10134 37.0667C0.702226 33.8204 0.00178115 30.3538 3.37553e-06 26.6667C-0.0017744 22.9796 0.69867 19.5129 2.10134 16.2667C3.504 13.0204 5.40356 10.1982 7.8 7.8C10.1964 5.40178 13.0187 3.50222 16.2667 2.10133C19.5147 0.700445 22.9813 0 26.6667 0C30.352 0 33.8187 0.700445 37.0667 2.10133C40.3147 3.50222 43.1369 5.40178 45.5333 7.8C47.9298 10.1982 49.8302 13.0204 51.2347 16.2667C52.6391 19.5129 53.3387 22.9796 53.3333 26.6667C53.328 30.3538 52.6276 33.8204 51.232 37.0667C49.8365 40.3129 47.9369 43.1351 45.5333 45.5333C43.1298 47.9316 40.3076 49.832 37.0667 51.2347C33.8258 52.6373 30.3591 53.3369 26.6667 53.3333ZM26.6667 48C32.6222 48 37.6667 45.9333 41.8 41.8C45.9333 37.6667 48 32.6222 48 26.6667C48 20.7111 45.9333 15.6667 41.8 11.5333C37.6667 7.4 32.6222 5.33333 26.6667 5.33333C20.7111 5.33333 15.6667 7.4 11.5333 11.5333C7.4 15.6667 5.33334 20.7111 5.33334 26.6667C5.33334 32.6222 7.4 37.6667 11.5333 41.8C15.6667 45.9333 20.7111 48 26.6667 48Z" fill="#FF66B3"/>
</svg>
