<svg width="54" height="54" viewBox="0 0 54 54" fill="none" xmlns="http://www.w3.org/2000/svg">
<path d="M24.332 26.4667V35C24.332 35.7555 24.588 36.3893 25.1 36.9013C25.612 37.4133 26.2449 37.6684 26.9987 37.6667C27.7525 37.6649 28.3863 37.4089 28.9 36.8987C29.4138 36.3884 29.6689 35.7555 29.6654 35V26.4667L32.0654 28.8666C32.5543 29.3555 33.1765 29.6 33.932 29.6C34.6876 29.6 35.3098 29.3555 35.7987 28.8666C36.2876 28.3778 36.532 27.7555 36.532 27C36.532 26.2444 36.2876 25.6222 35.7987 25.1333L28.8654 18.2C28.332 17.6666 27.7098 17.4 26.9987 17.4C26.2876 17.4 25.6654 17.6666 25.132 18.2L18.1987 25.1333C17.7098 25.6222 17.4654 26.2444 17.4654 27C17.4654 27.7555 17.7098 28.3778 18.1987 28.8666C18.6876 29.3555 19.3098 29.6 20.0654 29.6C20.8209 29.6 21.4431 29.3555 21.932 28.8666L24.332 26.4667ZM26.9987 53.6667C23.3098 53.6667 19.8431 52.9662 16.5987 51.5653C13.3543 50.1644 10.532 48.2649 8.13204 45.8667C5.73204 43.4684 3.83248 40.6462 2.43337 37.4C1.03426 34.1538 0.333812 30.6871 0.332035 27C0.330257 23.3129 1.0307 19.8462 2.43337 16.6C3.83604 13.3538 5.73559 10.5315 8.13204 8.13331C10.5285 5.73509 13.3507 3.83554 16.5987 2.43465C19.8467 1.03376 23.3134 0.333313 26.9987 0.333313C30.684 0.333313 34.1507 1.03376 37.3987 2.43465C40.6467 3.83554 43.4689 5.73509 45.8654 8.13331C48.2618 10.5315 50.1623 13.3538 51.5667 16.6C52.9711 19.8462 53.6707 23.3129 53.6654 27C53.66 30.6871 52.9596 34.1538 51.564 37.4C50.1685 40.6462 48.2689 43.4684 45.8654 45.8667C43.4618 48.2649 40.6396 50.1653 37.3987 51.568C34.1578 52.9707 30.6911 53.6702 26.9987 53.6667ZM26.9987 48.3333C32.9543 48.3333 37.9987 46.2667 42.132 42.1333C46.2654 38 48.332 32.9555 48.332 27C48.332 21.0444 46.2654 16 42.132 11.8666C37.9987 7.73331 32.9543 5.66665 26.9987 5.66665C21.0431 5.66665 15.9987 7.73331 11.8654 11.8666C7.73203 16 5.66537 21.0444 5.66537 27C5.66537 32.9555 7.73203 38 11.8654 42.1333C15.9987 46.2667 21.0431 48.3333 26.9987 48.3333Z" fill="#FF66B3"/>
</svg>
